<?xml version="1.0" standalone="no"?>
<!DOCTYPE svg PUBLIC "-//W3C//DTD SVG 20010904//EN"
 "http://www.w3.org/TR/2001/REC-SVG-20010904/DTD/svg10.dtd">
<svg version="1.0" xmlns="http://www.w3.org/2000/svg"
 width="260.000000pt" height="260.000000pt" viewBox="0 0 260.000000 260.000000"
 preserveAspectRatio="xMidYMid meet">
<metadata>
Created by potrace 1.11, written by Peter Selinger 2001-2013
</metadata>
<g transform="translate(0.000000,260.000000) scale(0.100000,-0.100000)"
fill="#000000" stroke="none">
<path d="M0 2300 l0 -300 300 0 300 0 0 300 0 300 -300 0 -300 0 0 -300z"/>
<path d="M800 2300 l0 -300 750 0 750 0 0 -100 0 -100 -750 0 -750 0 0 -250 0
-250 400 0 400 0 0 -100 0 -100 -400 0 -400 0 0 -550 0 -550 900 0 900 0 0
1300 0 1300 -900 0 -900 0 0 -300z"/>
<path d="M0 1550 l0 -250 300 0 300 0 0 250 0 250 -300 0 -300 0 0 -250z"/>
<path d="M0 550 l0 -550 300 0 300 0 0 550 0 550 -300 0 -300 0 0 -550z"/>
</g>
</svg>
