<svg id="svg" version="1.1" width="400" height="161.84971098265896" viewBox="0 0 400 161.84971098265896" xmlns="http://www.w3.org/2000/svg" xmlns:xlink="http://www.w3.org/1999/xlink" ><g id="svgg"><path id="path0" d="M220.583 10.171 C 217.394 10.302,210.950 10.889,209.824 11.151 C 209.417 11.246,208.199 11.484,207.117 11.681 C 203.835 12.279,203.922 12.697,207.667 14.333 C 208.354 14.633,209.367 15.099,209.917 15.369 C 210.467 15.638,211.933 16.296,213.174 16.830 C 216.247 18.153,220.555 20.573,221.033 21.245 C 221.505 21.907,219.368 21.438,217.640 20.499 C 217.348 20.341,216.001 19.831,212.833 18.679 C 210.866 17.964,207.263 16.783,204.167 15.838 C 203.204 15.544,201.967 15.166,201.417 14.996 C 200.364 14.672,198.834 14.297,195.667 13.587 C 194.612 13.350,193.112 13.013,192.333 12.837 C 189.859 12.278,184.570 11.591,181.417 11.419 C 175.549 11.099,170.510 12.726,169.202 15.362 C 167.076 19.648,167.932 28.712,171.206 36.583 C 171.472 37.225,171.940 38.350,172.245 39.083 C 178.339 53.748,190.797 66.828,205.977 74.497 C 207.603 75.319,209.230 76.100,209.592 76.233 C 209.954 76.366,210.887 76.749,211.667 77.085 C 212.446 77.420,213.402 77.807,213.792 77.946 C 214.181 78.085,214.500 78.266,214.500 78.349 C 214.500 78.582,212.722 78.528,212.120 78.276 C 211.825 78.153,211.298 77.999,210.949 77.933 C 209.678 77.696,204.598 75.955,202.781 75.136 C 186.348 67.724,172.312 52.847,167.195 37.417 C 165.201 31.403,164.694 29.009,164.273 23.630 C 164.050 20.774,164.033 20.743,162.490 20.465 C 160.686 20.140,147.997 20.189,144.750 20.533 C 143.283 20.689,141.446 20.859,140.667 20.913 C 139.338 21.003,138.326 21.129,134.000 21.741 C 130.790 22.196,127.104 22.820,125.167 23.238 C 124.112 23.465,122.688 23.771,122.000 23.918 C 118.034 24.767,108.330 27.415,106.667 28.103 C 106.346 28.235,105.708 28.449,105.250 28.579 C 104.255 28.859,100.025 30.304,98.500 30.885 C 97.904 31.112,96.592 31.597,95.583 31.963 C 94.575 32.328,92.662 33.089,91.333 33.654 C 90.004 34.218,88.579 34.822,88.167 34.994 C 87.754 35.167,86.382 35.770,85.117 36.333 C 83.852 36.896,82.539 37.472,82.200 37.613 C 81.389 37.949,77.445 39.859,73.969 41.599 C 69.499 43.836,62.595 47.621,58.305 50.187 C 57.327 50.771,55.959 51.587,55.264 52.000 C 54.570 52.413,53.308 53.190,52.459 53.728 C 51.611 54.267,50.599 54.904,50.211 55.145 C 47.189 57.021,38.786 62.715,35.793 64.914 C 35.542 65.099,34.680 65.716,33.877 66.287 C 33.074 66.857,31.817 67.779,31.083 68.336 C 27.817 70.817,26.310 71.980,24.833 73.159 C 23.962 73.854,23.013 74.609,22.723 74.836 C 21.853 75.521,19.119 77.751,18.583 78.214 C 18.308 78.451,17.698 78.969,17.226 79.365 C 11.277 84.352,10.791 85.169,14.169 84.502 C 14.947 84.349,16.108 84.136,16.750 84.030 C 17.392 83.924,18.629 83.570,19.500 83.244 C 21.367 82.546,23.145 82.028,26.000 81.349 C 30.470 80.286,31.750 80.072,41.083 78.827 C 41.817 78.729,43.429 78.503,44.667 78.324 C 51.362 77.355,62.143 77.349,67.083 78.312 C 67.542 78.401,68.667 78.554,69.583 78.653 C 70.500 78.751,71.887 78.940,72.667 79.072 C 73.446 79.204,75.321 79.512,76.833 79.756 C 83.532 80.834,91.808 83.412,95.386 85.534 C 96.899 86.431,97.351 86.682,100.631 88.444 C 104.140 90.328,104.538 90.569,106.735 92.143 C 109.254 93.948,110.667 95.158,112.888 97.413 C 114.064 98.607,115.914 100.483,116.998 101.583 C 118.956 103.570,119.478 104.193,120.744 106.052 C 121.777 107.570,122.757 108.534,123.203 108.471 L 123.583 108.417 123.667 95.401 C 123.735 84.705,123.791 82.335,123.979 82.109 C 124.252 81.780,154.560 81.676,155.170 82.002 C 155.343 82.094,155.835 82.826,156.263 83.627 C 156.692 84.428,157.436 85.796,157.918 86.667 C 158.399 87.537,159.188 89.037,159.671 90.000 C 160.155 90.962,160.644 91.862,160.758 92.000 C 160.873 92.138,161.358 93.000,161.837 93.917 C 162.315 94.833,163.062 96.221,163.495 97.000 C 163.928 97.779,164.946 99.654,165.756 101.167 C 170.194 109.452,170.103 109.346,171.167 107.494 C 172.246 105.615,173.910 102.563,174.844 100.750 C 175.411 99.650,176.004 98.563,176.163 98.333 C 176.322 98.104,176.901 97.054,177.449 96.000 C 177.998 94.946,178.654 93.708,178.908 93.250 C 179.941 91.384,180.155 90.992,181.324 88.833 C 183.835 84.198,185.029 82.163,185.332 82.001 C 185.831 81.733,217.108 81.774,217.282 82.042 C 217.356 82.156,217.454 93.912,217.500 108.167 L 217.583 134.083 218.083 134.129 C 218.583 134.175,218.977 133.951,221.759 132.042 C 222.963 131.215,223.117 131.045,223.839 129.750 C 227.999 122.284,238.347 115.991,249.500 114.142 C 250.004 114.059,251.017 113.884,251.750 113.753 C 253.784 113.391,257.072 113.190,262.667 113.086 C 265.462 113.034,269.625 112.919,271.917 112.831 C 274.208 112.743,278.473 112.593,281.395 112.498 C 288.509 112.265,288.122 112.729,285.603 107.450 C 282.541 101.032,283.568 98.746,290.333 96.920 C 291.571 96.586,293.071 96.168,293.667 95.992 C 294.706 95.684,295.395 95.536,299.083 94.829 C 302.734 94.129,305.954 93.335,307.750 92.693 C 308.300 92.497,309.688 92.150,310.833 91.924 C 311.979 91.697,313.967 91.279,315.250 90.995 C 317.435 90.512,318.597 90.280,322.750 89.498 C 325.761 88.930,327.069 88.661,328.083 88.400 C 328.633 88.258,329.833 88.001,330.750 87.829 C 331.667 87.657,333.429 87.319,334.667 87.077 C 335.904 86.836,337.629 86.499,338.500 86.329 C 340.084 86.021,341.107 85.803,343.917 85.176 C 344.742 84.992,346.879 84.582,348.667 84.263 C 350.454 83.945,352.364 83.568,352.910 83.426 C 353.456 83.283,354.216 83.167,354.597 83.167 C 354.979 83.167,355.620 83.049,356.021 82.905 C 356.422 82.761,357.238 82.544,357.833 82.422 C 363.406 81.289,370.938 79.208,373.833 78.002 C 379.396 75.686,380.717 74.229,384.867 65.833 C 391.121 53.180,390.854 49.598,383.504 47.564 C 380.869 46.835,380.152 47.173,379.196 49.599 C 379.019 50.049,378.613 51.054,378.293 51.833 C 377.974 52.612,377.464 54.000,377.158 54.917 C 375.783 59.047,375.554 56.193,376.859 51.180 C 378.319 45.567,378.390 45.990,375.814 44.896 C 371.765 43.175,366.939 41.206,362.667 39.530 C 362.071 39.296,361.508 39.052,361.417 38.987 C 361.203 38.835,359.212 38.069,356.250 36.998 C 354.967 36.533,353.579 36.013,353.167 35.841 C 352.754 35.669,351.404 35.216,350.167 34.834 C 348.929 34.452,346.679 33.738,345.167 33.246 C 341.869 32.174,335.996 30.358,333.917 29.767 C 333.092 29.533,331.479 29.069,330.333 28.737 C 327.657 27.960,326.820 27.727,322.583 26.575 C 320.658 26.051,318.558 25.477,317.917 25.299 C 315.326 24.578,307.552 22.608,305.000 22.026 C 304.129 21.827,302.592 21.476,301.583 21.246 C 300.575 21.015,299.150 20.679,298.417 20.499 C 296.453 20.015,294.291 19.526,292.500 19.161 C 289.799 18.609,288.101 18.217,287.667 18.044 C 287.438 17.953,286.875 17.829,286.417 17.767 C 285.958 17.706,284.946 17.513,284.167 17.338 C 283.387 17.163,281.287 16.786,279.500 16.501 C 277.712 16.216,275.762 15.876,275.167 15.747 C 271.982 15.057,266.133 14.056,261.500 13.408 C 260.537 13.274,258.737 13.016,257.500 12.836 C 255.400 12.530,249.576 11.897,245.167 11.495 C 244.112 11.398,242.738 11.247,242.113 11.159 C 241.487 11.070,239.312 10.886,237.279 10.749 C 235.247 10.613,232.983 10.429,232.250 10.342 C 230.421 10.123,224.019 10.029,220.583 10.171 M181.808 24.603 C 182.886 24.912,184.560 25.462,186.250 26.064 C 186.892 26.293,188.354 26.812,189.500 27.219 C 190.646 27.625,191.808 28.078,192.083 28.225 C 192.358 28.372,193.483 28.879,194.583 29.351 C 197.041 30.405,200.613 32.273,202.667 33.576 C 202.987 33.780,203.775 34.276,204.417 34.679 C 208.400 37.182,214.167 42.131,214.167 43.047 C 214.167 43.523,213.551 43.325,210.048 41.723 C 205.243 39.525,205.084 39.764,208.224 44.474 C 211.034 48.687,211.115 49.146,208.813 47.799 C 206.884 46.671,206.631 46.531,205.833 46.154 C 203.289 44.950,200.934 44.378,200.728 44.913 C 200.611 45.218,202.457 47.495,207.146 52.833 C 209.541 55.560,209.400 55.964,206.390 55.000 C 202.707 53.820,203.007 54.704,208.762 62.000 C 211.435 65.388,211.503 66.082,209.000 64.434 C 208.679 64.222,207.779 63.629,207.000 63.116 C 199.454 58.142,192.954 52.378,187.728 46.025 C 178.401 34.687,175.082 22.678,181.808 24.603 M271.167 34.827 C 272.931 34.966,275.807 35.355,277.500 35.683 C 278.004 35.780,279.167 35.997,280.083 36.165 C 281.000 36.333,282.313 36.585,283.000 36.725 C 283.688 36.864,285.563 37.178,287.167 37.422 C 290.568 37.940,294.719 38.735,295.424 39.003 C 295.694 39.105,296.403 39.290,296.999 39.412 C 297.595 39.534,298.833 39.788,299.750 39.975 C 301.240 40.280,304.014 40.916,307.917 41.846 C 309.819 42.300,312.065 42.814,313.400 43.101 C 315.822 43.622,315.809 44.058,313.333 45.282 L 311.583 46.148 309.083 46.330 C 307.708 46.430,306.208 46.588,305.750 46.681 C 305.292 46.774,302.404 46.920,299.333 47.006 C 284.254 47.428,277.797 45.517,273.889 39.476 C 272.853 37.873,273.072 37.985,268.167 36.556 C 266.497 36.070,264.829 35.319,264.896 35.083 C 264.999 34.715,268.135 34.586,271.167 34.827 M310.877 77.432 C 311.003 77.558,309.390 78.411,308.742 78.561 C 308.171 78.693,306.754 79.123,302.583 80.429 C 300.933 80.946,299.246 81.465,298.833 81.583 C 296.762 82.172,295.122 82.699,293.917 83.165 C 293.183 83.449,291.803 83.945,290.849 84.268 C 288.690 85.001,284.614 86.931,279.417 89.681 C 274.214 92.434,273.141 94.769,274.010 101.447 C 274.605 106.020,274.106 106.290,272.295 102.374 C 270.440 98.364,269.898 94.386,270.976 92.704 C 273.189 89.254,280.134 85.546,290.583 82.236 C 296.152 80.472,298.891 79.638,300.083 79.341 C 303.999 78.366,305.554 78.039,307.664 77.744 C 308.717 77.597,309.611 77.445,309.650 77.405 C 309.759 77.297,310.763 77.319,310.877 77.432 M155.683 117.025 C 155.443 117.714,155.423 156.776,155.663 157.406 L 155.825 157.833 170.316 157.833 C 185.822 157.833,185.225 157.860,185.589 157.155 C 185.885 156.583,185.964 117.864,185.671 117.094 C 185.368 116.297,185.641 115.930,179.468 125.417 C 178.693 126.608,177.771 128.033,177.419 128.583 C 176.365 130.231,172.779 135.754,171.886 137.105 C 170.551 139.123,170.676 139.210,167.318 133.929 C 166.914 133.293,166.048 131.943,165.393 130.929 C 164.738 129.914,163.865 128.558,163.453 127.917 C 163.041 127.275,161.964 125.611,161.060 124.220 C 159.055 121.132,156.915 117.773,156.488 117.042 C 156.092 116.363,155.915 116.360,155.683 117.025 " stroke="none" fill="#ffffff" fill-rule="evenodd"></path></g></svg>