<svg id="svg" version="1.1" width="400" height="400" viewBox="0 0 400 400" xmlns="http://www.w3.org/2000/svg" xmlns:xlink="http://www.w3.org/1999/xlink" ><g id="svgg"><path id="path0" d="M189.200 0.393 C 188.870 0.610,187.700 0.791,186.599 0.794 C 180.687 0.812,164.609 3.232,154.400 5.640 C 144.275 8.029,129.655 12.876,121.400 16.582 C 120.300 17.076,118.230 17.997,116.800 18.628 C 113.408 20.126,106.603 23.637,101.000 26.780 C 100.120 27.273,98.410 28.233,97.200 28.912 C 80.055 38.531,58.674 57.380,43.784 76.000 C 37.697 83.613,27.600 98.211,27.600 99.400 C 27.600 99.465,26.907 100.662,26.060 102.059 C 24.424 104.759,19.852 113.662,18.387 117.000 C 17.904 118.100,17.150 119.810,16.712 120.800 C 15.139 124.355,14.851 125.058,13.277 129.200 C 6.618 146.716,3.225 161.387,0.742 183.400 C -2.022 207.902,4.098 250.498,13.471 272.000 C 13.807 272.770,14.243 273.805,14.441 274.300 C 14.638 274.795,14.962 275.605,15.159 276.100 C 18.642 284.826,25.013 297.393,29.453 304.294 C 30.194 305.445,30.800 306.555,30.800 306.761 C 30.800 306.966,30.944 307.193,31.120 307.267 C 31.296 307.340,32.315 308.810,33.383 310.534 C 34.451 312.258,35.522 313.878,35.763 314.134 C 36.003 314.390,37.006 315.770,37.992 317.200 C 52.059 337.611,75.838 359.389,99.000 373.077 C 102.180 374.956,117.639 382.800,118.163 382.800 C 118.274 382.800,119.497 383.317,120.882 383.949 C 135.811 390.764,151.750 395.259,173.895 398.901 C 179.657 399.848,218.670 400.460,221.600 399.649 C 222.370 399.436,224.530 399.053,226.400 398.797 C 245.683 396.161,264.253 390.950,281.000 383.478 C 284.476 381.927,295.573 376.351,298.000 374.936 C 298.990 374.359,300.340 373.577,301.000 373.199 C 318.581 363.126,338.739 346.390,351.822 331.004 C 353.130 329.466,354.428 327.966,354.706 327.670 C 354.984 327.373,355.703 326.471,356.304 325.665 C 356.904 324.859,357.487 324.110,357.599 324.000 C 357.711 323.890,358.746 322.540,359.898 321.000 C 361.050 319.460,362.147 318.012,362.336 317.781 C 362.969 317.010,371.600 304.020,371.600 303.838 C 371.600 303.739,372.520 302.161,373.644 300.329 C 385.661 280.758,396.050 250.131,398.790 226.200 C 399.041 224.000,399.417 221.647,399.624 220.972 C 400.125 219.336,400.115 184.116,399.613 181.906 C 399.400 180.968,399.018 178.310,398.766 176.000 C 398.355 172.248,398.072 170.366,396.812 163.000 C 396.390 160.533,395.901 158.238,394.723 153.200 C 382.844 102.381,348.454 55.840,302.600 28.524 C 295.932 24.552,288.656 20.680,284.000 18.627 C 282.570 17.996,280.500 17.076,279.400 16.582 C 271.172 12.889,256.598 8.053,246.400 5.633 C 238.700 3.806,231.002 2.482,223.049 1.616 C 219.062 1.182,214.810 0.714,213.600 0.575 C 209.647 0.120,189.839 -0.027,189.200 0.393 M214.800 19.786 C 237.191 21.869,251.201 25.277,271.000 33.453 C 284.143 38.881,301.740 49.181,311.570 57.200 C 327.154 69.913,338.165 81.439,348.064 95.400 C 366.015 120.718,377.288 150.291,380.392 180.200 C 380.643 182.620,381.017 186.142,381.224 188.027 C 381.719 192.536,381.705 210.423,381.203 215.000 C 380.986 216.980,380.608 220.400,380.363 222.600 C 375.345 267.655,348.477 315.661,313.400 342.246 C 307.545 346.684,305.712 347.999,300.400 351.575 C 281.638 364.202,255.740 374.823,234.900 378.436 C 233.745 378.636,231.765 378.984,230.500 379.209 C 188.243 386.723,141.818 377.591,104.342 354.392 C 84.980 342.406,66.466 324.895,52.334 305.200 C 49.397 301.107,48.488 299.689,43.484 291.400 C 40.865 287.063,34.757 274.709,33.002 270.200 C 32.402 268.660,31.586 266.677,31.189 265.794 C 29.367 261.747,25.607 249.454,23.667 241.200 C -0.006 140.503,67.054 39.431,169.200 21.857 C 174.447 20.954,176.819 20.663,187.400 19.621 C 192.868 19.083,208.238 19.176,214.800 19.786 M125.800 99.005 C 112.803 101.445,105.366 110.415,103.431 125.984 C 102.574 132.876,102.447 134.650,101.792 148.800 C 100.324 180.537,98.194 185.210,84.200 187.393 C 77.733 188.402,78.400 186.887,78.400 200.571 C 78.400 213.677,78.188 212.794,81.333 212.807 C 96.891 212.872,101.584 221.962,101.596 252.058 C 101.611 290.352,109.963 302.533,136.200 302.527 C 148.034 302.524,147.200 303.427,147.200 290.623 C 147.200 279.502,147.933 280.554,140.000 280.291 C 127.523 279.877,127.232 279.365,126.404 256.400 C 125.161 221.904,122.160 212.922,108.060 201.504 C 106.844 200.519,106.886 200.440,110.029 197.787 C 118.978 190.234,122.244 183.802,124.338 169.600 C 125.769 159.900,126.000 156.593,126.007 145.723 C 126.022 123.195,127.222 121.047,140.180 120.346 C 143.689 120.156,146.707 119.853,146.887 119.673 C 147.067 119.493,147.166 114.678,147.107 108.973 L 147.000 98.600 137.800 98.540 C 131.644 98.499,127.674 98.653,125.800 99.005 M255.600 98.939 L 253.400 99.400 253.400 109.800 L 253.400 120.200 259.800 120.436 C 272.415 120.901,273.246 121.846,274.196 136.800 C 274.511 141.750,274.957 147.780,275.188 150.200 C 277.943 179.069,278.449 181.927,281.817 187.690 C 283.832 191.138,286.296 193.936,290.249 197.264 C 294.216 200.605,294.202 200.540,291.418 202.715 C 280.363 211.349,276.466 221.675,275.594 244.644 C 274.238 280.353,274.495 279.776,259.540 280.601 C 256.321 280.778,254.083 281.075,253.906 281.348 C 253.193 282.445,253.561 302.009,254.300 302.312 C 255.511 302.809,271.604 302.594,274.200 302.046 C 284.006 299.978,290.117 295.501,293.917 287.600 C 297.413 280.330,298.553 272.035,299.608 246.200 C 300.693 219.607,302.819 215.658,317.287 213.370 C 319.549 213.013,321.625 212.536,321.900 212.311 C 322.796 211.578,322.604 188.517,321.700 188.237 C 321.315 188.118,319.290 187.830,317.200 187.597 C 306.777 186.435,303.369 183.270,301.266 172.800 C 301.023 171.590,300.644 169.700,300.424 168.600 C 299.638 164.668,299.217 158.808,298.801 146.000 C 297.939 119.424,296.701 114.279,289.410 106.990 C 282.270 99.851,267.744 96.392,255.600 98.939 M146.520 187.118 C 131.299 192.571,135.361 214.224,151.600 214.193 C 169.951 214.158,170.246 187.483,151.906 186.543 C 149.365 186.413,148.119 186.546,146.520 187.118 M195.282 187.134 C 189.529 189.185,186.063 194.791,186.485 201.364 C 187.544 217.859,211.392 219.268,214.088 202.995 C 215.915 191.971,205.755 183.402,195.282 187.134 M245.400 186.933 C 229.327 192.279,233.477 214.457,250.551 214.457 C 260.109 214.457,267.006 203.095,262.657 194.512 C 259.686 188.650,251.306 184.970,245.400 186.933 " stroke="none" fill="#ffffff" fill-rule="evenodd"></path></g></svg>